<?xml version="1.0" encoding="utf-8"?>
<!-- Generator: Adobe Illustrator 15.0.0, SVG Export Plug-In . SVG Version: 6.00 Build 0)  -->
<!DOCTYPE svg PUBLIC "-//W3C//DTD SVG 1.1//EN" "http://www.w3.org/Graphics/SVG/1.1/DTD/svg11.dtd">
<svg version="1.1" id="Слой_2" xmlns="http://www.w3.org/2000/svg" xmlns:xlink="http://www.w3.org/1999/xlink" x="0px" y="0px"
	 width="200px" height="90px" viewBox="-4.875 -16.75 200 90" enable-background="new -4.875 -16.75 200 90" xml:space="preserve">
<g>
	<path d="M39.502,5.24v1.888H28.507v27.427h-2.286V7.128H15.224V5.24H39.502z"/>
	<path d="M50.354,5.029l13.553,29.525h-2.379l-4.637-10.136H42.556l-4.621,10.136h-2.377L49.109,5.029H50.354z M56.028,22.531
		L49.711,8.723l-6.294,13.808H56.028z"/>
	<path d="M84.2,5.24v1.888H73.204v27.427h-2.288V7.128H59.92V5.24H84.2z"/>
	<path d="M95.051,5.029l13.553,29.525h-2.379l-4.637-10.136H87.252l-4.62,10.136h-2.378L93.806,5.029H95.051z M100.725,22.531
		L94.409,8.723l-6.295,13.808H100.725z"/>
	<path d="M125.537,18.854L136.674,5.24h2.293v29.315h-2.286v-26l-11.153,13.703L114.331,8.555v26h-2.267V5.24h2.269L125.537,18.854z
		"/>
	<path d="M159.963,4.862c4.333,0,8.007,1.458,11.02,4.375c3.012,2.916,4.518,6.474,4.518,10.67c0,4.184-1.507,7.732-4.518,10.65
		c-3.015,2.916-6.687,4.375-11.02,4.375c-4.32,0-7.979-1.459-10.979-4.375c-2.998-2.917-4.497-6.467-4.497-10.65
		c0-4.196,1.499-7.754,4.497-10.67C151.983,6.32,155.643,4.862,159.963,4.862z M160.046,32.834c3.648,0,6.727-1.249,9.236-3.746
		c2.508-2.498,3.763-5.557,3.763-9.181c0-3.637-1.255-6.705-3.763-9.201c-2.51-2.498-5.588-3.746-9.236-3.746
		c-3.663,0-6.762,1.248-9.3,3.746c-2.537,2.497-3.806,5.564-3.806,9.201c0,3.623,1.269,6.683,3.806,9.181
		C153.284,31.585,156.385,32.834,160.046,32.834z"/>
</g>
<g>
	<line fill="none" x1="40.509" y1="48.688" x2="15.509" y2="48.688"/>
	<rect x="15.509" y="48.188" fill="#E3E8EA" width="25" height="1"/>
</g>
<g>
	<line fill="none" x1="175.5" y1="48.688" x2="150.5" y2="48.688"/>
	<rect x="150.5" y="48.188" fill="#E3E8EA" width="25" height="1"/>
</g>
<path d="M192.125-13.75v84h-194v-84H192.125 M195.125-16.75h-200v90h200V-16.75L195.125-16.75z"/>
<g>
	<path fill="#404753" d="M52.386,47.559h-1.973v4.775h-0.859v-4.775h-1.973v-0.742h4.805V47.559z"/>
	<path fill="#404753" d="M55.696,52.461c-0.918,0-1.63-0.248-2.136-0.745c-0.506-0.496-0.759-1.198-0.759-2.106
		c0-0.901,0.243-1.618,0.728-2.151c0.485-0.531,1.128-0.798,1.929-0.798c0.729,0,1.295,0.218,1.697,0.654s0.603,1.058,0.603,1.865
		v0.474H53.68c0,0.664,0.18,1.174,0.54,1.531c0.36,0.355,0.857,0.534,1.492,0.534c0.631,0,1.263-0.22,1.895-0.659h0.039v0.933
		C56.86,52.305,56.21,52.461,55.696,52.461z M53.68,49.004h3.237c-0.026-1.097-0.529-1.646-1.509-1.646
		c-0.495,0-0.895,0.146-1.201,0.439S53.725,48.493,53.68,49.004z"/>
	<path fill="#404753" d="M59.837,52.017v2.354h-0.859v-7.554h0.859v0.61c0.628-0.511,1.239-0.767,1.831-0.767
		c0.651,0,1.168,0.253,1.553,0.759c0.384,0.507,0.576,1.202,0.576,2.088c0,0.869-0.233,1.575-0.698,2.119s-1.042,0.815-1.729,0.815
		C60.846,52.441,60.335,52.3,59.837,52.017z M59.837,48.125v3.223c0.488,0.218,0.941,0.327,1.357,0.327
		c0.537,0,0.957-0.187,1.26-0.559c0.303-0.373,0.454-0.899,0.454-1.58c0-1.377-0.497-2.065-1.489-2.065
		C60.892,47.471,60.364,47.688,59.837,48.125z"/>
	<path fill="#404753" d="M65.921,52.017v2.354h-0.859v-7.554h0.859v0.61c0.628-0.511,1.239-0.767,1.831-0.767
		c0.651,0,1.168,0.253,1.553,0.759c0.384,0.507,0.576,1.202,0.576,2.088c0,0.869-0.233,1.575-0.698,2.119s-1.042,0.815-1.729,0.815
		C66.93,52.441,66.419,52.3,65.921,52.017z M65.921,48.125v3.223c0.488,0.218,0.941,0.327,1.357,0.327
		c0.537,0,0.957-0.187,1.26-0.559c0.303-0.373,0.454-0.899,0.454-1.58c0-1.377-0.497-2.065-1.489-2.065
		C66.976,47.471,66.448,47.688,65.921,48.125z"/>
	<path fill="#404753" d="M75.74,52.334h-0.85v-4.238l-2.974,4.238h-0.771v-5.518h0.85v4.204l2.944-4.204h0.801V52.334z"/>
	<path fill="#404753" d="M81.453,47.559H79.48v4.775h-0.859v-4.775h-1.973v-0.742h4.805V47.559z"/>
	<path fill="#404753" d="M84.412,52.485c-0.784,0-1.404-0.26-1.86-0.779c-0.456-0.519-0.684-1.228-0.684-2.126
		s0.229-1.609,0.688-2.134s1.077-0.786,1.855-0.786s1.396,0.261,1.855,0.781s0.688,1.233,0.688,2.139s-0.229,1.615-0.686,2.132
		C85.813,52.228,85.193,52.485,84.412,52.485z M84.412,47.393c-0.53,0-0.939,0.188-1.226,0.562s-0.43,0.916-0.43,1.626
		c0,0.7,0.144,1.237,0.43,1.611s0.695,0.562,1.226,0.562s0.939-0.188,1.226-0.562s0.43-0.911,0.43-1.611
		C86.067,48.122,85.516,47.393,84.412,47.393z"/>
	<path fill="#404753" d="M89.07,52.017v2.354h-0.859v-7.554h0.859v0.61c0.628-0.511,1.238-0.767,1.831-0.767
		c0.651,0,1.169,0.253,1.553,0.759c0.384,0.507,0.576,1.202,0.576,2.088c0,0.869-0.232,1.575-0.698,2.119s-1.042,0.815-1.729,0.815
		C90.079,52.441,89.568,52.3,89.07,52.017z M89.07,48.125v3.223c0.488,0.218,0.94,0.327,1.357,0.327c0.537,0,0.957-0.187,1.26-0.559
		c0.303-0.373,0.454-0.899,0.454-1.58c0-1.377-0.496-2.065-1.489-2.065C90.125,47.471,89.598,47.688,89.07,48.125z"/>
	<path fill="#404753" d="M98.89,52.334h-0.85v-4.238l-2.974,4.238h-0.771v-5.518h0.85v4.204l2.944-4.204h0.801V52.334z"/>
	<path fill="#404753" d="M104.739,52.334h-0.859v-2.207h-1.187l-1.699,2.207h-1.021l1.851-2.295
		c-0.918-0.244-1.377-0.796-1.377-1.655c0-0.485,0.177-0.867,0.53-1.147c0.353-0.28,0.907-0.42,1.662-0.42h2.1V52.334z
		 M103.88,49.434V47.52h-1.216c-0.518,0-0.869,0.078-1.055,0.234s-0.278,0.373-0.278,0.649c0,0.374,0.105,0.64,0.317,0.796
		s0.56,0.234,1.045,0.234H103.88z"/>
	<path fill="#404753" d="M113.807,51.997c-0.661,0.31-1.237,0.464-1.729,0.464c-0.85,0-1.51-0.249-1.979-0.747
		c-0.471-0.498-0.706-1.208-0.706-2.129c0-0.901,0.242-1.611,0.728-2.129s1.14-0.776,1.963-0.776c0.544,0,1.118,0.151,1.724,0.454
		v0.957h-0.039c-0.608-0.446-1.177-0.669-1.704-0.669c-0.563,0-1.001,0.188-1.313,0.562s-0.469,0.908-0.469,1.602
		s0.155,1.223,0.466,1.587c0.312,0.364,0.75,0.547,1.316,0.547c0.544,0,1.111-0.22,1.704-0.659h0.039V51.997z"/>
	<path fill="#404753" d="M119.715,52.334h-1.138l-2.28-2.549h-0.571v2.549h-0.859v-5.518h0.859v2.422
		c0.342-0.003,0.606-0.061,0.793-0.171c0.188-0.11,0.353-0.3,0.496-0.566c0.13-0.29,0.241-0.525,0.332-0.708
		s0.212-0.354,0.361-0.515c0.149-0.162,0.33-0.279,0.539-0.352c0.211-0.074,0.464-0.11,0.76-0.11h0.361v0.732h-0.405
		c-0.254,0-0.456,0.057-0.605,0.171s-0.281,0.315-0.396,0.605c-0.212,0.534-0.501,0.896-0.869,1.089L119.715,52.334z"/>
	<path fill="#404753" d="M125.145,52.334h-0.85v-4.238l-2.974,4.238h-0.771v-5.518h0.85v4.204l2.944-4.204h0.801V52.334z"/>
	<path fill="#404753" d="M131.81,53.643h-0.791v-1.323h-4.229v1.323h-0.791v-2.051h0.576c0.349-0.576,0.627-1.292,0.835-2.148
		s0.313-1.731,0.313-2.627h3.428v4.775h0.659V53.643z M130.291,51.592v-4.067h-1.758c-0.075,1.579-0.447,2.935-1.118,4.067H130.291z
		"/>
	<path fill="#404753" d="M135.066,52.485c-0.784,0-1.404-0.26-1.86-0.779c-0.456-0.519-0.684-1.228-0.684-2.126
		s0.229-1.609,0.688-2.134s1.077-0.786,1.855-0.786s1.396,0.261,1.855,0.781s0.688,1.233,0.688,2.139s-0.229,1.615-0.686,2.132
		C136.467,52.228,135.848,52.485,135.066,52.485z M135.066,47.393c-0.53,0-0.939,0.188-1.226,0.562s-0.43,0.916-0.43,1.626
		c0,0.7,0.144,1.237,0.43,1.611s0.695,0.562,1.226,0.562s0.939-0.188,1.226-0.562s0.43-0.911,0.43-1.611
		C136.722,48.122,136.17,47.393,135.066,47.393z"/>
	<path fill="#404753" d="M143.714,52.334h-1.138l-2.28-2.549h-0.571v2.549h-0.859v-5.518h0.859v2.422
		c0.342-0.003,0.606-0.061,0.794-0.171c0.187-0.11,0.352-0.3,0.495-0.566c0.13-0.29,0.241-0.525,0.332-0.708
		s0.212-0.354,0.361-0.515c0.149-0.162,0.329-0.279,0.54-0.352c0.209-0.074,0.463-0.11,0.759-0.11h0.361v0.732h-0.405
		c-0.254,0-0.456,0.057-0.605,0.171s-0.281,0.315-0.396,0.605c-0.212,0.534-0.501,0.896-0.869,1.089L143.714,52.334z"/>
</g>
</svg>
