<?xml version="1.0" encoding="utf-8"?>
<!-- Generator: Adobe Illustrator 15.0.0, SVG Export Plug-In . SVG Version: 6.00 Build 0)  -->
<!DOCTYPE svg PUBLIC "-//W3C//DTD SVG 1.1//EN" "http://www.w3.org/Graphics/SVG/1.1/DTD/svg11.dtd">
<svg version="1.1" id="Слой_1" xmlns="http://www.w3.org/2000/svg" xmlns:xlink="http://www.w3.org/1999/xlink" x="0px" y="0px"
	 width="202px" height="64px" viewBox="0 0 202 64" enable-background="new 0 0 202 64" xml:space="preserve">
<g>
	<path d="M18.9506836,12.2548828v26.4912109h-8.8110352V12.2548828H2.9047852V4.7680664h23.2807617v7.4868164H18.9506836z"/>
	<path d="M48.3046875,33.0405273H35.9770508l-2.2905273,5.7055664H24.362793L37.4033203,4.7680664H47.03125l12.7866211,33.9780273
		h-9.4243164L48.3046875,33.0405273z M45.9614258,26.3164063L42.1411133,15.3125L38.421875,26.3164063H45.9614258z"/>
	<path d="M74.0493164,12.2548828v26.4912109h-8.8120117V12.2548828H58.003418V4.7680664h23.2807617v7.4868164H74.0493164z"/>
	<path d="M103.4057617,33.0405273H91.078125l-2.2929688,5.7055664h-9.3227539L92.5048828,4.7680664h9.6269531l12.7861328,33.9780273
		h-9.4238281L103.4057617,33.0405273z M101.0620117,26.3164063L97.2412109,15.3125l-3.71875,11.0039063H101.0620117z"/>
	<path d="M116.3144531,38.7460938l5.7548828-33.9780273h8.7119141l6.8769531,18.1352539l7.2841797-18.1352539h8.8144531
		l5.0927734,33.9780273h-8.8125l-2.4960938-19.5620117l-8.2011719,19.5620117h-3.515625l-7.8457031-19.5620117
		l-2.9033203,19.5620117H116.3144531z"/>
	<path d="M194.0771484,34.4672852c-3.4658203,3.3100586-8.3564453,5.0419922-13.3974609,5.0419922
		c-5.0449219,0-9.9345703-1.7319336-13.3984375-5.0419922c-3.6171875-3.4633789-5.3505859-8.2021484-5.3505859-12.6845703
		c0-4.5327148,1.7333984-9.3227539,5.3505859-12.7358398c3.4638672-3.3125,8.3535156-5.0444336,13.3984375-5.0444336
		c5.0410156,0,9.9316406,1.7319336,13.3974609,5.0444336c3.6142578,3.4130859,5.3457031,8.203125,5.3457031,12.7358398
		C199.4228516,26.2651367,197.6914063,31.0039063,194.0771484,34.4672852z M173.8017578,15.262207
		c-1.8349609,1.7817383-2.7001953,4.2788086-2.7001953,6.6723633c0,3.0068359,1.4277344,5.0961914,2.7001953,6.3173828
		c1.6289063,1.5805664,3.921875,2.7001953,6.8779297,2.7001953c3.0039063,0,5.2451172-1.0693359,6.8242188-2.6479492
		c1.5800781-1.5795898,2.75-3.9238281,2.75-6.5214844c0-2.6508789-1.1699219-4.9921875-2.75-6.5205078
		c-1.8847656-1.7832031-4.4824219-2.7001953-6.8242188-2.7001953
		C178.2324219,12.5620117,175.6347656,13.4277344,173.8017578,15.262207z"/>
</g>
<g>
	<path fill="#5D7070" d="M47.0141602,55.4433594c0.0585938-0.2216797,0.1166992-0.4492188,0.1708984-0.6806641
		c0.0556641-0.2333984,0.0830078-0.4228516,0.0830078-0.5683594c0-0.2197266-0.0522461-0.3994141-0.1577148-0.5371094
		c-0.1079102-0.1308594-0.2973633-0.2011719-0.5673828-0.2011719c-0.1459961,0-0.3056641,0.0371094-0.4838867,0.1142578
		c-0.1791992,0.0761719-0.355957,0.1708984-0.5292969,0.2871094c-0.1738281,0.1171875-0.3354492,0.2460938-0.4848633,0.390625
		c-0.1479492,0.140625-0.2607422,0.28125-0.3383789,0.4199219l-1.1713867,4.7900391H42.362793l0.8798828-3.7587891
		c0.0678711-0.2744141,0.1235352-0.5390625,0.1713867-0.7949219c0.0458984-0.2617188,0.0712891-0.5283203,0.0712891-0.796875
		c0-0.1962891-0.0400391-0.3535156-0.1166992-0.4726563c-0.0771484-0.1210938-0.2084961-0.1787109-0.3930664-0.1787109
		c-0.1875,0-0.3720703,0.0332031-0.5541992,0.1035156c-0.1860352,0.0654297-0.3579102,0.15625-0.5224609,0.2646484
		c-0.1669922,0.1123047-0.3198242,0.2412109-0.4594727,0.3818359c-0.140625,0.1455078-0.2705078,0.2988281-0.3901367,0.4619141
		l-1.0947266,4.7900391h-1.2485352l1.3115234-6.0019531h-0.8657227V52.765625h2.2807617l-0.2822266,1.1074219h0.0532227
		c0.1010742-0.1152344,0.2290039-0.2480469,0.3818359-0.3916016c0.1538086-0.1455078,0.328125-0.2783203,0.5219727-0.4033203
		c0.1943359-0.1210938,0.4155273-0.2236328,0.6557617-0.3125c0.2421875-0.0820313,0.5039063-0.1279297,0.7827148-0.1279297
		c0.3413086,0,0.6166992,0.1005859,0.8300781,0.2919922c0.2114258,0.1894531,0.3173828,0.5224609,0.3173828,0.9980469
		c0.4111328-0.3886719,0.8242188-0.7050781,1.2407227-0.9365234c0.4189453-0.2333984,0.8706055-0.3535156,1.3574219-0.3535156
		c0.824707,0,1.2397461,0.4326172,1.2397461,1.2900391c0,0.2275391-0.0253906,0.4658203-0.0712891,0.7148438
		c-0.046875,0.2421875-0.1113281,0.5136719-0.1962891,0.8007813l-0.9443359,3.3261719h1.0463867v0.6884766h-2.4228516
		L47.0141602,55.4433594z"/>
	<path fill="#5D7070" d="M54.9140625,58.2333984c-0.0927734,0.1708984-0.2202148,0.3369141-0.3837891,0.4990234
		c-0.1606445,0.1601563-0.3520508,0.3056641-0.5712891,0.4306641c-0.222168,0.1298828-0.4672852,0.2333984-0.7407227,0.3066406
		c-0.2719727,0.0771484-0.5644531,0.1171875-0.8759766,0.1171875c-0.7333984,0-1.3149414-0.2070313-1.7543945-0.6181641
		c-0.4375-0.4160156-0.6572266-0.9931641-0.6572266-1.7431641c0-0.6328125,0.0947266-1.2363281,0.2822266-1.796875
		c0.1860352-0.5585938,0.449707-1.0449219,0.7890625-1.4501953c0.3398438-0.4082031,0.7495117-0.7333984,1.2299805-0.9755859
		c0.4794922-0.2402344,1.0136719-0.3652344,1.5981445-0.3652344c0.2299805,0,0.4458008,0.0292969,0.6508789,0.0830078
		c0.2036133,0.0595703,0.3808594,0.1416016,0.534668,0.25c0.1538086,0.1132813,0.2719727,0.2480469,0.3579102,0.4111328
		c0.0849609,0.1611328,0.1269531,0.3466797,0.1269531,0.5585938c0,0.6103516-0.3227539,1.1035156-0.9702148,1.4775391
		c-0.644043,0.3740234-1.7021484,0.6123047-3.171875,0.7138672c-0.0332031,0.1533203-0.0581055,0.2978516-0.0751953,0.4355469
		c-0.0175781,0.1308594-0.0268555,0.2695313-0.0268555,0.4052734c0,0.5341797,0.1381836,0.9619141,0.4150391,1.2822266
		c0.2758789,0.3154297,0.6831055,0.4775391,1.2172852,0.4775391c0.1694336,0,0.3383789-0.0263672,0.5019531-0.0810547
		c0.1660156-0.0478516,0.324707-0.1152344,0.4780273-0.1933594c0.1538086-0.0830078,0.2915039-0.1757813,0.4150391-0.2734375
		c0.1225586-0.1035156,0.2231445-0.1992188,0.300293-0.2958984L54.9140625,58.2333984z M53.4111328,53.2412109
		c-0.4008789,0-0.765625,0.1738281-1.097168,0.5253906c-0.3300781,0.3515625-0.6157227,0.9423828-0.8520508,1.7675781
		c0.9003906-0.0253906,1.590332-0.1748047,2.0708008-0.4492188c0.4780273-0.2705078,0.7182617-0.6337891,0.7182617-1.0947266
		c0-0.0917969-0.0117188-0.1826172-0.0371094-0.2744141c-0.0258789-0.0859375-0.0708008-0.1689453-0.1352539-0.2392578
		c-0.0639648-0.0742188-0.1489258-0.1337891-0.2548828-0.1748047
		C53.7172852,53.2597656,53.5820313,53.2412109,53.4111328,53.2412109z"/>
	<path fill="#5D7070" d="M57.1811523,61.3701172h0.9443359v0.6337891h-2.3710938l1.9248047-8.5478516h-0.8657227V52.765625h2.28125
		l-0.3330078,1.3154297h0.050293c0.1347656-0.1865234,0.2885742-0.3681641,0.4560547-0.5419922
		c0.1708984-0.1748047,0.3569336-0.3271484,0.5644531-0.4648438c0.206543-0.1367188,0.4316406-0.2402344,0.6713867-0.3203125
		c0.2412109-0.0742188,0.4990234-0.1162109,0.7788086-0.1162109c0.4726563,0,0.859375,0.1611328,1.1650391,0.4814453
		c0.3027344,0.3164063,0.456543,0.8251953,0.456543,1.5234375c0,0.6435547-0.105957,1.2636719-0.3178711,1.8574219
		c-0.2109375,0.5986328-0.5024414,1.1240234-0.8681641,1.5810547c-0.3686523,0.4589844-0.7998047,0.8251953-1.2949219,1.0957031
		c-0.4936523,0.2724609-1.0244141,0.4101563-1.5908203,0.4101563c-0.1513672,0-0.2822266-0.0048828-0.3925781-0.0136719
		c-0.109375-0.0078125-0.2060547-0.0263672-0.2919922-0.0449219c-0.0844727-0.0224609-0.1674805-0.0449219-0.2460938-0.0703125
		c-0.0805664-0.0244141-0.1679688-0.0585938-0.2612305-0.1035156L57.1811523,61.3701172z M60.6069336,53.4560547
		c-0.2368164,0-0.4633789,0.0498047-0.6772461,0.1513672c-0.2163086,0.1054688-0.4082031,0.2294922-0.5791016,0.3789063
		c-0.175293,0.1455078-0.3251953,0.3076172-0.4511719,0.4804688c-0.1269531,0.1757813-0.2182617,0.3398438-0.2783203,0.4951172
		l-0.828125,3.7587891c0.059082,0.0488281,0.1210938,0.0947266,0.1855469,0.1318359
		c0.0615234,0.0371094,0.1337891,0.0654297,0.2128906,0.0820313c0.0825195,0.0166016,0.1772461,0.0283203,0.2871094,0.0380859
		c0.1069336,0.0097656,0.2416992,0.0117188,0.4038086,0.0117188c0.3637695,0,0.7075195-0.1240234,1.0302734-0.3808594
		c0.3271484-0.2539063,0.6113281-0.5839844,0.8549805-0.9873047c0.2456055-0.4033203,0.4428711-0.8544922,0.5898438-1.3564453
		c0.1469727-0.5029297,0.2207031-0.9960938,0.2207031-1.4765625c0-0.4277344-0.0820313-0.7568359-0.2460938-0.984375
		C61.168457,53.5703125,60.9248047,53.4560547,60.6069336,53.4560547z"/>
	<path fill="#5D7070" d="M64.8144531,61.3701172h0.9433594v0.6337891h-2.3710938l1.925293-8.5478516h-0.8671875V52.765625h2.2817383
		l-0.3320313,1.3154297h0.0507813c0.1328125-0.1865234,0.2866211-0.3681641,0.4550781-0.5419922
		c0.1708984-0.1748047,0.3569336-0.3271484,0.5649414-0.4648438c0.206543-0.1367188,0.4306641-0.2402344,0.6713867-0.3203125
		c0.2412109-0.0742188,0.5-0.1162109,0.7773438-0.1162109c0.4736328,0,0.8618164,0.1611328,1.1660156,0.4814453
		c0.3027344,0.3164063,0.456543,0.8251953,0.456543,1.5234375c0,0.6435547-0.105957,1.2636719-0.3173828,1.8574219
		c-0.2114258,0.5986328-0.5019531,1.1240234-0.8691406,1.5810547c-0.3681641,0.4589844-0.7978516,0.8251953-1.2954102,1.0957031
		c-0.4916992,0.2724609-1.0234375,0.4101563-1.5898438,0.4101563c-0.1508789,0-0.28125-0.0048828-0.3920898-0.0136719
		c-0.1088867-0.0078125-0.206543-0.0263672-0.2929688-0.0449219c-0.0844727-0.0224609-0.1674805-0.0449219-0.2456055-0.0703125
		c-0.0810547-0.0244141-0.1669922-0.0585938-0.2612305-0.1035156L64.8144531,61.3701172z M68.237793,53.4560547
		c-0.2363281,0-0.4633789,0.0498047-0.6748047,0.1513672c-0.2163086,0.1054688-0.4091797,0.2294922-0.5825195,0.3789063
		c-0.1728516,0.1455078-0.3232422,0.3076172-0.4487305,0.4804688c-0.1259766,0.1757813-0.2177734,0.3398438-0.2783203,0.4951172
		l-0.828125,3.7587891c0.0585938,0.0488281,0.1196289,0.0947266,0.1850586,0.1318359
		c0.0629883,0.0371094,0.1342773,0.0654297,0.2138672,0.0820313C65.9052734,58.9511719,66,58.9628906,66.1098633,58.9726563
		c0.1088867,0.0097656,0.2431641,0.0117188,0.4042969,0.0117188c0.362793,0,0.7080078-0.1240234,1.0317383-0.3808594
		c0.3251953-0.2539063,0.6088867-0.5839844,0.8540039-0.9873047c0.2456055-0.4033203,0.4414063-0.8544922,0.5898438-1.3564453
		c0.1455078-0.5029297,0.2211914-0.9960938,0.2211914-1.4765625c0-0.4277344-0.0830078-0.7568359-0.2475586-0.984375
		C68.8007813,53.5703125,68.5571289,53.4560547,68.237793,53.4560547z"/>
	<path fill="#5D7070" d="M77.9038086,58.7695313v0.6884766h-2.3466797l0.2685547-1.5009766h-0.0493164
		c-0.1293945,0.1777344-0.2871094,0.3603516-0.4741211,0.5498047c-0.1860352,0.1904297-0.3959961,0.3662109-0.6303711,0.5234375
		c-0.2319336,0.1582031-0.4873047,0.2900391-0.7631836,0.3945313c-0.2788086,0.1083984-0.5688477,0.1621094-0.8720703,0.1621094
		c-0.3935547,0-0.7016602-0.1035156-0.9326172-0.3154297c-0.2270508-0.2070313-0.3447266-0.5107422-0.3447266-0.9091797
		c0-0.1210938,0.0117188-0.2734375,0.0336914-0.4648438c0.0214844-0.1894531,0.0566406-0.4101563,0.1083984-0.6591797
		l0.8022461-3.7822266h-0.8793945V52.765625h2.2944336l-0.8793945,3.8125
		c-0.0532227,0.2207031-0.1025391,0.4570313-0.1533203,0.7060547c-0.0493164,0.2529297-0.0776367,0.4970703-0.0776367,0.7353516
		c0,0.2509766,0.0556641,0.4423828,0.1665039,0.5654297c0.1118164,0.1210938,0.2548828,0.1845703,0.4321289,0.1845703
		c0.2890625,0,0.5654297-0.0673828,0.824707-0.2041016c0.2568359-0.1376953,0.4916992-0.2949219,0.6992188-0.4765625
		c0.2094727-0.1816406,0.3837891-0.3730469,0.5214844-0.5683594c0.1416016-0.1943359,0.2446289-0.3574219,0.3139648-0.4853516
		l0.8549805-4.2695313h1.2207031l-1.1591797,6.0039063H77.9038086z"/>
	<path fill="#5D7070" d="M87.5610352,55.4433594c0.059082-0.2216797,0.1176758-0.4492188,0.1708984-0.6806641
		c0.0556641-0.2333984,0.0834961-0.4228516,0.0834961-0.5683594c0-0.2197266-0.0522461-0.3994141-0.1582031-0.5371094
		c-0.1088867-0.1308594-0.2958984-0.2011719-0.5683594-0.2011719c-0.1455078,0-0.3051758,0.0371094-0.4829102,0.1142578
		c-0.1791992,0.0761719-0.3549805,0.1708984-0.5292969,0.2871094c-0.1743164,0.1171875-0.3349609,0.2460938-0.4848633,0.390625
		c-0.1474609,0.140625-0.2607422,0.28125-0.3383789,0.4199219l-1.171875,4.7900391h-1.1713867l0.8798828-3.7587891
		c0.0683594-0.2744141,0.1240234-0.5390625,0.171875-0.7949219c0.0458984-0.2617188,0.0712891-0.5283203,0.0712891-0.796875
		c0-0.1962891-0.0405273-0.3535156-0.1166992-0.4726563c-0.0761719-0.1210938-0.2084961-0.1787109-0.394043-0.1787109
		c-0.1875,0-0.3720703,0.0332031-0.5556641,0.1035156c-0.1831055,0.0654297-0.3549805,0.15625-0.5214844,0.2646484
		c-0.1665039,0.1123047-0.3203125,0.2412109-0.4580078,0.3818359c-0.1420898,0.1455078-0.2705078,0.2988281-0.3896484,0.4619141
		l-1.0961914,4.7900391h-1.2475586l1.3105469-6.0019531h-0.8652344V52.765625h2.2802734l-0.2797852,1.1074219h0.0512695
		c0.1010742-0.1152344,0.2285156-0.2480469,0.3818359-0.3916016c0.1538086-0.1455078,0.3266602-0.2783203,0.5224609-0.4033203
		c0.1938477-0.1210938,0.4140625-0.2236328,0.6542969-0.3125c0.2431641-0.0820313,0.5048828-0.1279297,0.784668-0.1279297
		c0.3393555,0,0.6166992,0.1005859,0.8300781,0.2919922c0.2124023,0.1894531,0.315918,0.5224609,0.315918,0.9980469
		c0.4116211-0.3886719,0.8251953-0.7050781,1.2402344-0.9365234c0.4194336-0.2333984,0.8725586-0.3535156,1.3569336-0.3535156
		c0.8261719,0,1.2412109,0.4326172,1.2412109,1.2900391c0,0.2275391-0.0253906,0.4658203-0.0712891,0.7148438
		c-0.046875,0.2421875-0.1123047,0.5136719-0.1972656,0.8007813l-0.9443359,3.3261719h1.0454102v0.6884766h-2.421875
		L87.5610352,55.4433594z"/>
	<path fill="#5D7070" d="M90.4780273,56.9726563c0-0.4775391,0.078125-0.9716797,0.2358398-1.484375
		c0.1582031-0.5146484,0.394043-0.9775391,0.7143555-1.3935547c0.3193359-0.4199219,0.7182617-0.7626953,1.1987305-1.0419922
		c0.4785156-0.2724609,1.0415039-0.4150391,1.6884766-0.4150391c0.737793,0,1.2939453,0.2207031,1.6689453,0.6523438
		c0.3740234,0.4345703,0.5615234,1.0654297,0.5615234,1.8984375c0,0.5859375-0.0913086,1.1416016-0.2675781,1.6689453
		c-0.1806641,0.5253906-0.4321289,0.9902344-0.7539063,1.3886719c-0.3212891,0.3984375-0.7084961,0.7226563-1.1591797,0.9707031
		c-0.4511719,0.2451172-0.9521484,0.3701172-1.5039063,0.3701172c-0.7211914,0-1.2988281-0.2246094-1.7319336-0.6728516
		C90.6962891,58.4697266,90.4780273,57.8222656,90.4780273,56.9726563z M94.034668,53.2412109
		c-0.2983398,0-0.5620117,0.0605469-0.7900391,0.1894531c-0.2304688,0.1289063-0.4248047,0.2978516-0.5869141,0.5136719
		c-0.1625977,0.2207031-0.2963867,0.4648438-0.4086914,0.7431641c-0.1088867,0.2744141-0.1982422,0.5634766-0.2675781,0.8623047
		c-0.0678711,0.3027344-0.1132813,0.6005859-0.1381836,0.8925781c-0.0263672,0.2949219-0.0395508,0.5712891-0.0395508,0.8369141
		c0,0.4902344,0.1186523,0.9013672,0.3515625,1.2246094c0.2329102,0.3173828,0.5546875,0.4804688,0.9619141,0.4804688
		c0.3222656,0,0.6137695-0.1152344,0.8720703-0.3574219c0.2592773-0.2363281,0.4804688-0.5380859,0.6611328-0.9082031
		c0.1845703-0.3691406,0.3242188-0.7910156,0.4213867-1.2685547c0.0976563-0.4755859,0.1479492-0.9619141,0.1479492-1.4648438
		c0-0.5263672-0.0957031-0.9501953-0.2871094-1.2695313C94.7421875,53.3984375,94.4418945,53.2412109,94.034668,53.2412109z"/>
	<path fill="#5D7070" d="M98.5317383,61.3701172h0.9438477v0.6337891h-2.3710938l1.9248047-8.5478516h-0.8681641V52.765625
		h2.2827148l-0.331543,1.3154297h0.0493164c0.1352539-0.1865234,0.2875977-0.3681641,0.4555664-0.5419922
		c0.1708984-0.1748047,0.3583984-0.3271484,0.5649414-0.4648438c0.2080078-0.1367188,0.4311523-0.2402344,0.6708984-0.3203125
		c0.2421875-0.0742188,0.5004883-0.1162109,0.7797852-0.1162109c0.4716797,0,0.8603516,0.1611328,1.1660156,0.4814453
		c0.3017578,0.3164063,0.4555664,0.8251953,0.4555664,1.5234375c0,0.6435547-0.1069336,1.2636719-0.3188477,1.8574219
		c-0.2104492,0.5986328-0.5014648,1.1240234-0.8681641,1.5810547c-0.3666992,0.4589844-0.7988281,0.8251953-1.2949219,1.0957031
		c-0.4936523,0.2724609-1.0234375,0.4101563-1.5893555,0.4101563c-0.1518555,0-0.2822266-0.0048828-0.3920898-0.0136719
		c-0.1113281-0.0078125-0.2089844-0.0263672-0.2939453-0.0449219c-0.0844727-0.0224609-0.1674805-0.0449219-0.246582-0.0703125
		c-0.0795898-0.0244141-0.1674805-0.0585938-0.2602539-0.1035156L98.5317383,61.3701172z M101.9560547,53.4560547
		c-0.2373047,0-0.4619141,0.0498047-0.6772461,0.1513672c-0.2148438,0.1054688-0.4077148,0.2294922-0.5800781,0.3789063
		c-0.1743164,0.1455078-0.3232422,0.3076172-0.449707,0.4804688c-0.1269531,0.1757813-0.2177734,0.3398438-0.2783203,0.4951172
		l-0.8271484,3.7587891c0.0576172,0.0488281,0.1196289,0.0947266,0.184082,0.1318359
		c0.0615234,0.0371094,0.1352539,0.0654297,0.2128906,0.0820313c0.0810547,0.0166016,0.1777344,0.0283203,0.2875977,0.0380859
		c0.1083984,0.0097656,0.2431641,0.0117188,0.4038086,0.0117188c0.3632813,0,0.7075195-0.1240234,1.0317383-0.3808594
		c0.3242188-0.2539063,0.6088867-0.5839844,0.8540039-0.9873047c0.2446289-0.4033203,0.4423828-0.8544922,0.5888672-1.3564453
		c0.1464844-0.5029297,0.2216797-0.9960938,0.2216797-1.4765625c0-0.4277344-0.0830078-0.7568359-0.2451172-0.984375
		C102.5185547,53.5703125,102.2749023,53.4560547,101.9560547,53.4560547z"/>
	<path fill="#5D7070" d="M111.6210938,58.7695313v0.6884766h-2.3457031l0.2675781-1.5009766h-0.0488281
		c-0.1303711,0.1777344-0.2880859,0.3603516-0.4746094,0.5498047c-0.1875,0.1904297-0.3964844,0.3662109-0.6293945,0.5234375
		c-0.2329102,0.1582031-0.4887695,0.2900391-0.7646484,0.3945313c-0.2768555,0.1083984-0.5673828,0.1621094-0.8730469,0.1621094
		c-0.3925781,0-0.7001953-0.1035156-0.9301758-0.3154297c-0.2294922-0.2070313-0.3457031-0.5107422-0.3457031-0.9091797
		c0-0.1210938,0.0112305-0.2734375,0.034668-0.4648438c0.0205078-0.1894531,0.0556641-0.4101563,0.1079102-0.6591797
		l0.8017578-3.7822266h-0.8789063V52.765625h2.2939453l-0.8793945,3.8125
		c-0.0522461,0.2207031-0.1020508,0.4570313-0.1533203,0.7060547c-0.0507813,0.2529297-0.0776367,0.4970703-0.0776367,0.7353516
		c0,0.2509766,0.0566406,0.4423828,0.1665039,0.5654297c0.1118164,0.1210938,0.2553711,0.1845703,0.4335938,0.1845703
		c0.2875977,0,0.5639648-0.0673828,0.8232422-0.2041016c0.2563477-0.1376953,0.4912109-0.2949219,0.6987305-0.4765625
		c0.2094727-0.1816406,0.3842773-0.3730469,0.5229492-0.5683594c0.1416016-0.1943359,0.2456055-0.3574219,0.3129883-0.4853516
		l0.8544922-4.2695313h1.2211914l-1.1582031,6.0039063H111.6210938z"/>
	<path fill="#5D7070" d="M114.9199219,56.5136719c-0.1694336-0.0332031-0.3461914-0.0966797-0.5268555-0.1835938
		c-0.184082-0.0927734-0.3515625-0.2021484-0.5043945-0.3408203c-0.1538086-0.1318359-0.2802734-0.2900391-0.3769531-0.4677734
		c-0.0976563-0.1796875-0.1464844-0.3789063-0.1464844-0.6035156c0-0.3291016,0.0805664-0.6328125,0.2397461-0.90625
		c0.1621094-0.2783203,0.3920898-0.5185547,0.6933594-0.7216797c0.2978516-0.203125,0.6704102-0.3603516,1.1098633-0.4785156
		c0.4389648-0.1142578,0.9375-0.1738281,1.4951172-0.1738281c0.3564453,0,0.703125,0.0292969,1.0410156,0.0791016
		c0.3388672,0.0488281,0.6386719,0.1171875,0.8994141,0.1914063l-1.2353516,5.8613281h1.0947266v0.6884766h-2.4189453
		l0.5732422-2.7558594h-0.8046875l-2.2543945,2.7558594h-1.6953125v-0.6884766h0.6889648L114.9199219,56.5136719z
		 M117.5957031,53.3818359c-0.1201172-0.0458984-0.2607422-0.0800781-0.4267578-0.1044922
		c-0.1669922-0.0244141-0.3466797-0.0361328-0.5410156-0.0361328c-0.2724609,0-0.5263672,0.0449219-0.7597656,0.140625
		c-0.2314453,0.0908203-0.4360352,0.21875-0.6113281,0.3798828c-0.1743164,0.1621094-0.3110352,0.3515625-0.4140625,0.5732422
		c-0.1005859,0.2207031-0.1538086,0.4648438-0.1538086,0.7255859c0,0.3310547,0.1777344,0.6064453,0.5302734,0.8183594
		c0.3520508,0.2089844,0.8168945,0.3173828,1.3959961,0.3173828h0.3310547L117.5957031,53.3818359z"/>
	<path fill="#5D7070" d="M128.6572266,58.1962891c-0.2392578,0.4404297-0.5810547,0.7861328-1.0253906,1.0253906
		c-0.4423828,0.2441406-0.9921875,0.3652344-1.6376953,0.3652344c-0.3681641,0-0.6962891-0.0683594-0.9882813-0.1992188
		c-0.2890625-0.1328125-0.5361328-0.3076172-0.7412109-0.5273438c-0.2060547-0.2236328-0.3632813-0.4853516-0.4667969-0.7841797
		c-0.1074219-0.3027344-0.1630859-0.6171875-0.1630859-0.9501953c0-0.6640625,0.0927734-1.2685547,0.2695313-1.8212891
		c0.1777344-0.5546875,0.4433594-1.0283203,0.7890625-1.421875c0.34375-0.3935547,0.765625-0.7011719,1.2617188-0.9169922
		c0.4921875-0.2148438,1.0566406-0.328125,1.6894531-0.328125c0.359375,0,0.6914063,0.0458984,0.9970703,0.1386719
		c0.3076172,0.0859375,0.5253906,0.2021484,0.6523438,0.3476563l-0.3828125,1.5185547h-0.9150391l0.2666016-1.1494141
		c-0.0683594-0.0576172-0.1796875-0.0986328-0.3378906-0.1240234c-0.1572266-0.0283203-0.3017578-0.0419922-0.4277344-0.0419922
		c-0.3808594,0-0.7275391,0.0830078-1.0380859,0.2470703c-0.3095703,0.1669922-0.5771484,0.4003906-0.8027344,0.6982422
		c-0.2246094,0.2958984-0.3964844,0.6542969-0.5175781,1.0732422c-0.1181641,0.4238281-0.1787109,0.8916016-0.1787109,1.4121094
		c0,0.609375,0.1416016,1.0898438,0.4238281,1.4423828c0.2841797,0.3525391,0.65625,0.5322266,1.1181641,0.5322266
		c0.3847656,0,0.7236328-0.0830078,1.0175781-0.25c0.296875-0.1650391,0.5332031-0.3720703,0.7138672-0.6162109
		L128.6572266,58.1962891z"/>
	<path fill="#5D7070" d="M132.0820313,56.2851563h-0.5205078l-0.6376953,3.1728516h-1.25l1.2363281-6.0019531h-0.9951172V52.765625
		h2.3964844l-0.6494141,3.0087891h0.4238281l2.3027344-1.8710938V52.765625h1.6943359v0.6904297l-2.9423828,2.1894531
		l1.8730469,3.1240234h0.7265625v0.6884766h-1.8984375L132.0820313,56.2851563z"/>
	<path fill="#5D7070" d="M143.1708984,58.7695313v0.6884766h-2.3466797l0.2685547-1.5009766h-0.0498047
		c-0.1279297,0.1777344-0.2851563,0.3603516-0.4736328,0.5498047c-0.1865234,0.1904297-0.3955078,0.3662109-0.6298828,0.5234375
		c-0.2324219,0.1582031-0.4863281,0.2900391-0.7626953,0.3945313c-0.2792969,0.1083984-0.5683594,0.1621094-0.8740234,0.1621094
		c-0.3916016,0-0.6992188-0.1035156-0.9306641-0.3154297c-0.2285156-0.2070313-0.3447266-0.5107422-0.3447266-0.9091797
		c0-0.1210938,0.0097656-0.2734375,0.0341797-0.4648438c0.0195313-0.1894531,0.0546875-0.4101563,0.1074219-0.6591797
		l0.8007813-3.7822266h-0.8779297V52.765625h2.2929688l-0.8779297,3.8125
		c-0.0517578,0.2207031-0.1025391,0.4570313-0.1542969,0.7060547c-0.0498047,0.2529297-0.0771484,0.4970703-0.0771484,0.7353516
		c0,0.2509766,0.0566406,0.4423828,0.1660156,0.5654297c0.1132813,0.1210938,0.2548828,0.1845703,0.4345703,0.1845703
		c0.2871094,0,0.5625-0.0673828,0.8232422-0.2041016c0.2568359-0.1376953,0.4902344-0.2949219,0.6972656-0.4765625
		c0.2099609-0.1816406,0.3837891-0.3730469,0.5244141-0.5683594c0.140625-0.1943359,0.2441406-0.3574219,0.3115234-0.4853516
		l0.8564453-4.2695313h1.2207031l-1.1591797,6.0039063H143.1708984z"/>
	<path fill="#5D7070" d="M144.3427734,57.2001953c0-0.5849609,0.0966797-1.1435547,0.2919922-1.6787109
		c0.1953125-0.5361328,0.4707031-1.0068359,0.828125-1.4140625c0.3574219-0.4130859,0.7900391-0.734375,1.2998047-0.9755859
		c0.5097656-0.2460938,1.0791016-0.3662109,1.7070313-0.3662109c0.1689453,0,0.3388672,0.0224609,0.5048828,0.0595703
		s0.2988281,0.0908203,0.3994141,0.1572266c0-0.2773438-0.0283203-0.5546875-0.0888672-0.8251953
		c-0.0595703-0.2744141-0.1572266-0.5151367-0.2988281-0.7255859c-0.1386719-0.2148438-0.3232422-0.3862305-0.546875-0.5185547
		c-0.2255859-0.1328125-0.5009766-0.1962891-0.8212891-0.1962891c-0.2998047,0-0.5732422,0.0458984-0.8242188,0.1464844
		c-0.2509766,0.0991211-0.4814453,0.2026367-0.6953125,0.3120117l-0.2392578-0.4692383
		c0.1015625-0.112793,0.2353516-0.2167969,0.4052734-0.3154297c0.1708984-0.0976563,0.3574219-0.184082,0.5634766-0.2548828
		c0.203125-0.0727539,0.4150391-0.1269531,0.6416016-0.1723633c0.2255859-0.0424805,0.4443359-0.0615234,0.65625-0.0615234
		c0.3632813,0,0.7021484,0.0615234,1.0146484,0.1899414c0.3085938,0.1269531,0.578125,0.3271484,0.8076172,0.5966797
		c0.2304688,0.2739258,0.4111328,0.6176758,0.5429688,1.0332031c0.1308594,0.4189453,0.1953125,0.9121094,0.1953125,1.4921875
		c0,0.9091797-0.1044922,1.75-0.3105469,2.5322266c-0.2089844,0.7753906-0.5,1.4462891-0.8740234,2.0146484
		c-0.3710938,0.5732422-0.8144531,1.0166016-1.3232422,1.3408203c-0.5107422,0.3232422-1.0615234,0.4853516-1.6591797,0.4853516
		c-0.6601563,0-1.1894531-0.2070313-1.5869141-0.6181641C144.5410156,58.5527344,144.3427734,57.96875,144.3427734,57.2001953z
		 M148.34375,53.4560547c-0.5019531,0-0.9238281,0.1230469-1.2607422,0.3769531
		c-0.3408203,0.2480469-0.6171875,0.5644531-0.8300781,0.9423828c-0.2119141,0.3769531-0.3642578,0.7919922-0.4521484,1.2431641
		c-0.0888672,0.4472656-0.1328125,0.8759766-0.1328125,1.2734375c0,0.1953125,0.0185547,0.3857422,0.0576172,0.5820313
		c0.0380859,0.1904297,0.0996094,0.359375,0.1875,0.5136719c0.0908203,0.1523438,0.2109375,0.2763672,0.3583984,0.3691406
		c0.1494141,0.0957031,0.3330078,0.140625,0.5566406,0.140625c0.2890625,0,0.5810547-0.1230469,0.8847656-0.3691406
		c0.3007813-0.2509766,0.5722656-0.5976563,0.8144531-1.0546875c0.2431641-0.4492188,0.4423828-0.9931641,0.6005859-1.6298828
		c0.1552734-0.6298828,0.234375-1.3330078,0.234375-2.1064453c-0.1953125-0.1123047-0.3730469-0.1855469-0.5302734-0.2236328
		C148.6767578,53.4765625,148.5126953,53.4560547,148.34375,53.4560547z"/>
	<path fill="#5D7070" d="M151.4785156,56.9726563c0-0.4775391,0.0771484-0.9716797,0.234375-1.484375
		c0.1572266-0.5146484,0.3935547-0.9775391,0.7138672-1.3935547c0.3203125-0.4199219,0.7177734-0.7626953,1.2001953-1.0419922
		c0.4775391-0.2724609,1.0410156-0.4150391,1.6865234-0.4150391c0.7392578,0,1.2939453,0.2207031,1.6708984,0.6523438
		c0.3730469,0.4345703,0.5595703,1.0654297,0.5595703,1.8984375c0,0.5859375-0.0898438,1.1416016-0.2685547,1.6689453
		c-0.1777344,0.5253906-0.4296875,0.9902344-0.7529297,1.3886719c-0.3203125,0.3984375-0.7080078,0.7226563-1.1591797,0.9707031
		c-0.4492188,0.2451172-0.9521484,0.3701172-1.5039063,0.3701172c-0.7216797,0-1.2978516-0.2246094-1.7304688-0.6728516
		C151.6943359,58.4697266,151.4785156,57.8222656,151.4785156,56.9726563z M155.0351563,53.2412109
		c-0.2998047,0-0.5634766,0.0605469-0.7919922,0.1894531c-0.2294922,0.1289063-0.4238281,0.2978516-0.5869141,0.5136719
		c-0.1611328,0.2207031-0.296875,0.4648438-0.4072266,0.7431641c-0.1113281,0.2744141-0.2001953,0.5634766-0.2695313,0.8623047
		c-0.0683594,0.3027344-0.1123047,0.6005859-0.1376953,0.8925781c-0.0253906,0.2949219-0.0380859,0.5712891-0.0380859,0.8369141
		c0,0.4902344,0.1162109,0.9013672,0.3496094,1.2246094c0.2324219,0.3173828,0.5556641,0.4804688,0.9628906,0.4804688
		c0.3212891,0,0.6132813-0.1152344,0.8720703-0.3574219c0.2597656-0.2363281,0.4785156-0.5380859,0.6621094-0.9082031
		c0.1845703-0.3691406,0.3242188-0.7910156,0.421875-1.2685547c0.0966797-0.4755859,0.1464844-0.9619141,0.1464844-1.4648438
		c0-0.5263672-0.0966797-0.9501953-0.2871094-1.2695313C155.7412109,53.3984375,155.4404297,53.2412109,155.0351563,53.2412109z"/>
	<path fill="#5D7070" d="M161.0986328,56.2851563h-0.5224609l-0.6376953,3.1728516h-1.2470703l1.234375-6.0019531h-0.9951172
		V52.765625h2.3945313l-0.6474609,3.0087891h0.4238281l2.3037109-1.8710938V52.765625h1.6923828v0.6904297l-2.9404297,2.1894531
		l1.8720703,3.1240234h0.7246094v0.6884766h-1.8964844L161.0986328,56.2851563z"/>
</g>
<line fill="none" stroke="#C1D1D0" stroke-miterlimit="10" x1="21.1020508" y1="55.25" x2="3.4042969" y2="55.25"/>
<line fill="none" stroke="#C1D1D0" stroke-miterlimit="10" x1="199.4238281" y1="55.25" x2="181.7255859" y2="55.25"/>
</svg>
