<?xml version="1.0" encoding="utf-8"?>
<!-- Generator: Adobe Illustrator 15.0.0, SVG Export Plug-In . SVG Version: 6.00 Build 0)  -->
<!DOCTYPE svg PUBLIC "-//W3C//DTD SVG 1.1//EN" "http://www.w3.org/Graphics/SVG/1.1/DTD/svg11.dtd">
<svg version="1.1" id="Слой_2" xmlns="http://www.w3.org/2000/svg" xmlns:xlink="http://www.w3.org/1999/xlink" x="0px" y="0px"
	 width="192px" height="61px" viewBox="5 1.5 192 61" enable-background="new 5 1.5 192 61" xml:space="preserve">
<g>
	<path d="M37.373,7.576v2.153H24.836V41h-2.607V9.729H9.691V7.576H37.373z"/>
	<path d="M49.746,7.336L65.199,41h-2.712L57.2,29.444H40.854L35.586,41h-2.711L48.326,7.336H49.746z M56.215,27.291l-7.202-15.743
		l-7.177,15.743H56.215z"/>
	<path d="M88.336,7.576v2.153H75.799V41H73.19V9.729H60.653V7.576H88.336z"/>
	<path d="M100.709,7.336L116.162,41h-2.712l-5.287-11.556H91.817L86.549,41h-2.711L99.289,7.336H100.709z M107.178,27.291
		l-7.202-15.743l-7.177,15.743H107.178z"/>
	<path d="M135.469,23.099l12.697-15.523h2.615V41h-2.607V11.356l-12.717,15.624l-12.765-15.624V41h-2.584V7.576h2.585
		L135.469,23.099z"/>
	<path d="M174.72,7.145c4.941,0,9.129,1.663,12.564,4.989c3.435,3.325,5.152,7.381,5.152,12.166c0,4.77-1.718,8.816-5.152,12.143
		c-3.436,3.325-7.623,4.988-12.564,4.988c-4.926,0-9.098-1.663-12.518-4.988c-3.419-3.326-5.128-7.373-5.128-12.143
		c0-4.785,1.709-8.841,5.128-12.166C165.622,8.808,169.794,7.145,174.72,7.145z M174.815,39.038c4.159,0,7.67-1.424,10.53-4.271
		c2.86-2.848,4.291-6.336,4.291-10.468c0-4.147-1.431-7.645-4.291-10.491c-2.86-2.848-6.371-4.271-10.53-4.271
		c-4.176,0-7.71,1.423-10.604,4.271c-2.893,2.847-4.339,6.344-4.339,10.491c0,4.131,1.446,7.62,4.339,10.468
		C167.105,37.614,170.64,39.038,174.815,39.038z"/>
</g>
<g>
	<line fill="#FFFFFF" x1="43.5" y1="54.834" x2="9.5" y2="54.834"/>
	<rect x="9.5" y="54.334" fill="#E3E8EA" width="34" height="1"/>
</g>
<g>
	<line fill="#FFFFFF" x1="192.499" y1="54.834" x2="158.499" y2="54.834"/>
	<rect x="158.499" y="54.334" fill="#E3E8EA" width="34" height="1"/>
</g>
<g>
	<path fill="#4F5354" d="M52.25,52.944h5.373v0.527h-2.396v4.863h-0.58v-4.863H52.25V52.944z"/>
	<path fill="#4F5354" d="M63.043,55.44h-4.248c-0.012,0.094-0.018,0.188-0.018,0.281c0,0.602,0.215,1.111,0.645,1.529
		s0.938,0.627,1.523,0.627c0.684,0,1.352-0.268,2.004-0.803v0.65c-0.617,0.477-1.309,0.715-2.074,0.715
		c-0.777,0-1.42-0.27-1.928-0.809s-0.762-1.225-0.762-2.057c0-0.789,0.234-1.442,0.703-1.96s1.059-0.776,1.77-0.776
		c0.668,0,1.232,0.233,1.693,0.7S63.043,54.64,63.043,55.44z M58.871,54.978h3.492c-0.203-1.051-0.771-1.576-1.705-1.576
		c-0.441,0-0.823,0.138-1.146,0.413S58.977,54.478,58.871,54.978z"/>
	<path fill="#4F5354" d="M64.783,52.944v0.305c0.543-0.273,1.084-0.41,1.623-0.41c0.766,0,1.4,0.264,1.904,0.791
		s0.756,1.191,0.756,1.992c0,0.789-0.26,1.456-0.779,2.001s-1.154,0.817-1.904,0.817c-0.52,0-1.053-0.135-1.6-0.404v3.059h-0.574
		v-8.15H64.783z M64.783,53.8v3.674c0.488,0.27,0.984,0.404,1.488,0.404c0.645,0,1.166-0.203,1.564-0.609s0.598-0.939,0.598-1.6
		c0-0.656-0.211-1.198-0.633-1.626s-0.955-0.642-1.6-0.642C65.74,53.401,65.268,53.534,64.783,53.8z"/>
	<path fill="#4F5354" d="M70.9,52.944v0.305c0.543-0.273,1.084-0.41,1.623-0.41c0.766,0,1.4,0.264,1.904,0.791
		s0.756,1.191,0.756,1.992c0,0.789-0.26,1.456-0.779,2.001S73.25,58.44,72.5,58.44c-0.52,0-1.053-0.135-1.6-0.404v3.059h-0.574
		v-8.15H70.9z M70.9,53.8v3.674c0.488,0.27,0.984,0.404,1.488,0.404c0.645,0,1.166-0.203,1.564-0.609s0.598-0.939,0.598-1.6
		c0-0.656-0.211-1.198-0.633-1.626s-0.955-0.642-1.6-0.642C71.857,53.401,71.385,53.534,70.9,53.8z"/>
	<path fill="#4F5354" d="M80.34,58.335v-4.388l-3.586,4.435h-0.322v-5.438h0.574v4.397l3.586-4.397h0.328v5.391H80.34z"/>
	<path fill="#4F5354" d="M81.746,52.944h5.373v0.527h-2.396v4.863h-0.58v-4.863h-2.396V52.944z"/>
	<path fill="#4F5354" d="M90.453,52.839c0.781,0,1.433,0.268,1.954,0.803s0.782,1.203,0.782,2.004c0,0.797-0.261,1.462-0.782,1.995
		s-1.173,0.8-1.954,0.8s-1.435-0.267-1.96-0.8s-0.788-1.198-0.788-1.995c0-0.801,0.263-1.469,0.788-2.004
		S89.672,52.839,90.453,52.839z M90.453,57.878c0.605,0,1.111-0.212,1.518-0.636s0.609-0.956,0.609-1.597
		c0-0.637-0.204-1.17-0.612-1.6s-0.913-0.645-1.515-0.645c-0.609,0-1.118,0.213-1.526,0.639s-0.612,0.961-0.612,1.605
		c0,0.641,0.204,1.173,0.612,1.597S89.844,57.878,90.453,57.878z"/>
	<path fill="#4F5354" d="M95.035,52.944v0.305c0.543-0.273,1.084-0.41,1.623-0.41c0.766,0,1.4,0.264,1.904,0.791
		s0.756,1.191,0.756,1.992c0,0.789-0.26,1.456-0.779,2.001s-1.154,0.817-1.904,0.817c-0.52,0-1.053-0.135-1.6-0.404v3.059h-0.574
		v-8.15H95.035z M95.035,53.8v3.674c0.488,0.27,0.984,0.404,1.488,0.404c0.645,0,1.166-0.203,1.564-0.609s0.598-0.939,0.598-1.6
		c0-0.656-0.211-1.198-0.633-1.626s-0.955-0.642-1.6-0.642C95.992,53.401,95.52,53.534,95.035,53.8z"/>
	<path fill="#4F5354" d="M104.475,58.335v-4.388l-3.586,4.435h-0.322v-5.438h0.574v4.397l3.586-4.397h0.328v5.391H104.475z"/>
	<path fill="#4F5354" d="M110.504,52.944v5.391h-0.58v-2.232h-0.896c-0.348,0-0.643,0.068-0.883,0.205
		c-0.24,0.136-0.496,0.403-0.766,0.802l-0.813,1.226h-0.697l0.938-1.4c0.34-0.512,0.664-0.82,0.973-0.926
		c-0.824-0.255-1.236-0.787-1.236-1.597c0-0.47,0.195-0.832,0.586-1.086c0.391-0.255,0.936-0.382,1.635-0.382H110.504z
		 M108.459,55.634h1.465v-2.221h-1.043c-0.656,0-1.109,0.088-1.355,0.265c-0.25,0.176-0.373,0.452-0.373,0.828
		C107.152,55.258,107.588,55.634,108.459,55.634z"/>
	<path fill="#4F5354" d="M119.129,53.108v0.639c-0.516-0.227-0.982-0.34-1.4-0.34c-0.602,0-1.092,0.209-1.469,0.627
		s-0.564,0.961-0.564,1.629c0,0.68,0.188,1.22,0.564,1.62s0.883,0.601,1.516,0.601c0.461,0,0.945-0.104,1.453-0.311v0.598
		c-0.539,0.184-1.039,0.275-1.5,0.275c-0.789,0-1.428-0.25-1.914-0.75s-0.729-1.156-0.729-1.969c0-0.848,0.244-1.54,0.734-2.077
		s1.117-0.806,1.879-0.806C118.117,52.845,118.594,52.933,119.129,53.108z"/>
	<path fill="#4F5354" d="M120.33,52.839h0.527v2.449h0.514c0.383,0,0.66-0.059,0.832-0.176c0.172-0.118,0.314-0.339,0.428-0.663
		l0.273-0.779c0.199-0.555,0.59-0.832,1.168-0.831h0.23v0.527h-0.229c-0.344,0-0.576,0.172-0.697,0.516l-0.252,0.721
		c-0.172,0.488-0.408,0.801-0.709,0.938c0.32,0.055,0.717,0.475,1.189,1.26l0.926,1.535h-0.684l-0.941-1.558
		c-0.285-0.477-0.523-0.766-0.715-0.867c-0.191-0.103-0.43-0.153-0.715-0.153h-0.619v2.578h-0.527V52.839z"/>
	<path fill="#4F5354" d="M129.348,58.335v-4.388l-3.586,4.435h-0.322v-5.438h0.574v4.397l3.586-4.397h0.328v5.391H129.348z"/>
	<path fill="#4F5354" d="M136.25,57.866h0.703v1.881h-0.527v-1.412h-5.109v1.412h-0.527v-1.881h0.721l2.25-5.027h0.357
		L136.25,57.866z M135.67,57.866l-1.762-4.066l-1.814,4.066H135.67z"/>
	<path fill="#4F5354" d="M140.311,52.839c0.781,0,1.432,0.268,1.953,0.803s0.783,1.203,0.783,2.004c0,0.797-0.262,1.462-0.783,1.995
		s-1.172,0.8-1.953,0.8s-1.436-0.267-1.961-0.8s-0.787-1.198-0.787-1.995c0-0.801,0.262-1.469,0.787-2.004
		S139.529,52.839,140.311,52.839z M140.311,57.878c0.605,0,1.111-0.212,1.518-0.636s0.609-0.956,0.609-1.597
		c0-0.637-0.205-1.17-0.613-1.6s-0.912-0.645-1.514-0.645c-0.609,0-1.119,0.213-1.527,0.639s-0.611,0.961-0.611,1.605
		c0,0.641,0.203,1.173,0.611,1.597S139.701,57.878,140.311,57.878z"/>
	<path fill="#4F5354" d="M144.307,52.839h0.527v2.449h0.514c0.383,0,0.66-0.059,0.832-0.176c0.172-0.118,0.314-0.339,0.428-0.663
		l0.273-0.779c0.199-0.555,0.59-0.832,1.168-0.831h0.23v0.527h-0.229c-0.344,0-0.576,0.172-0.697,0.516l-0.252,0.721
		c-0.172,0.488-0.408,0.801-0.709,0.938c0.32,0.055,0.717,0.475,1.189,1.26l0.926,1.535h-0.684l-0.941-1.558
		c-0.285-0.477-0.523-0.766-0.715-0.867c-0.191-0.103-0.43-0.153-0.715-0.153h-0.619v2.578h-0.527V52.839z"/>
</g>
</svg>
